<?xml version="1.0" encoding="UTF-8"?>
<svg width="200px" height="200px" viewBox="0 0 200 200" version="1.1" xmlns="http://www.w3.org/2000/svg">
    <title>Roman Eagle</title>
    <g id="Roman-Eagle" stroke="none" stroke-width="1" fill="none" fill-rule="evenodd">
        <circle id="Background" fill="#8E1600" cx="100" cy="100" r="100"></circle>
        <g id="Eagle" transform="translate(25, 25)" fill="#D4AF37" fill-rule="nonzero">
            <!-- Eagle Body -->
            <path d="M75,30 C90,20 105,35 100,50 C110,45 120,55 110,65 C120,60 130,70 120,80 C130,75 140,85 130,95 C140,90 145,105 130,110 C120,115 110,110 100,100 C90,110 80,115 70,110 C55,105 60,90 70,95 C60,85 70,75 80,80 C70,70 80,60 90,65 C80,55 90,45 100,50 C95,35 60,20 75,30 Z"></path>
            
            <!-- Eagle Head -->
            <path d="M100,10 C110,5 120,15 115,25 C120,20 125,30 115,35 C105,40 95,40 85,35 C75,30 80,20 85,25 C80,15 90,5 100,10 Z"></path>
            
            <!-- Eagle Beak -->
            <path d="M105,25 L115,30 L105,35 Z"></path>
            
            <!-- Eagle Legs -->
            <path d="M85,100 L75,130 L85,125 L95,140 L105,125 L115,130 L105,100 Z"></path>
            
            <!-- SPQR Text -->
            <text x="75" y="150" font-family="Trajan Pro, serif" font-size="20" text-anchor="middle">SPQR</text>
        </g>
    </g>
</svg> 